<svg xmlns="http://www.w3.org/2000/svg" fill="none" viewBox="0 0 96 96" class="base-avatar__avatar"><circle cx="48.18" cy="48" r="48" fill="#EDF8F8"></circle><path fill="#1D1D1B" d="M63.952 70.55c-.561 4.889-10.406 9.418-21.608 8.831s-19.074-8.65-18.952-10.955 9.3-3.695 20.498-3.112c11.202.586 20.326 2.94 20.062 5.232z"></path><path fill="#E99457" d="M72.361 42.759c0 7.494-1.42 8.206-6.334 11.558-3.339 2.275-5.66 4.73-4.721 9.061 4.382 20.238-3.004 14.386-17.268 14.386-16.522 0-23-.557-19.417-8.022 3.284-6.842 4.654-6.318 4.654-11.454 0-12.584-12.534-40.573 20.146-40.573 12.027 0 22.944 12.46 22.944 25.044z"></path><path fill="#E99457" d="M73.146 57.454c11.37-3.46 15.295-21.813 5.316-22.178L53.637 34.05v.021c-8.521.147-20.955 16.506-10.616 24.453 3.02 2.32 11.65 4.553 30.125-1.073z"></path><path fill="#202020" d="m78.621 35.935-2.587-.094a4.654 4.654 0 0 0-4.82 4.481l-.001.004a4.654 4.654 0 0 0 4.481 4.821l2.588.095a4.654 4.654 0 0 0 4.82-4.482v-.004a4.654 4.654 0 0 0-4.48-4.821"></path><path fill="#E15D59" d="M37.83 49.415a6.04 6.04 0 1 0 0-12.081 6.04 6.04 0 0 0 0 12.081"></path><path fill="#202020" d="M29.828 29.806C6.494 42.884 6.871 52.712 12.078 59.239c5.212 6.527 17.348 2.9 21.064-4.248 5.182-9.962-3.318-25.185-3.318-25.185z"></path><path fill="#202020" fill-rule="evenodd" d="M48.475 60.983c.134-.54.68-.868 1.218-.734 1.581.393 2.86.483 3.732.479.435-.003.769-.03.986-.053a5 5 0 0 0 .289-.04l.007-.002a1.005 1.005 0 0 1 .401 1.97l-.194-.94.194.94h-.001l-.002.001-.004.001-.01.002-.029.005-.095.017q-.12.019-.333.044c-.284.032-.688.063-1.198.065-1.022.006-2.47-.1-4.227-.537a1.005 1.005 0 0 1-.734-1.218" clip-rule="evenodd"></path><path fill="#252525" fill-rule="evenodd" d="M68.475 51.335a3.703 3.703 0 0 0-5.174.836 1.676 1.676 0 1 1-2.72-1.959 7.054 7.054 0 0 1 9.858-1.593 1.676 1.676 0 1 1-1.964 2.716" clip-rule="evenodd"></path><path fill="#92DCDC" d="M62.885 77.182c-1.253 4.084-10.817 6.367-22.015 5.78-11.202-.586-19.572-5.596-19.455-7.9l1.965-6.64c-.121 2.304 8.253 7.314 19.455 7.9s19.76-1.055 21.11-5.776l-1.06 6.631z"></path><path fill="#fff" d="M66.64 29.83s-3.766 4.144-8.223 3.98c-4.453-.163-7.91-4.566-7.91-4.566s3.767-4.143 8.224-3.98c4.453.164 7.91 4.567 7.91 4.567"></path><path fill="#252525" d="M57.66 33.986a4.395 4.395 0 1 0 0-8.789 4.395 4.395 0 0 0 0 8.79"></path><path fill="#fff" d="M50.234 33.24s-3.766 4.143-8.223 3.98c-4.453-.163-7.91-4.566-7.91-4.566s3.767-4.143 8.224-3.98c4.453.163 7.91 4.566 7.91 4.566"></path><path fill="#252525" d="M41.254 37.392a4.395 4.395 0 1 0 0-8.79 4.395 4.395 0 0 0 0 8.79"></path><path fill="#B2B2B2" fill-rule="evenodd" d="M33.475 34.21v.002l-.004.017-.013.08a10 10 0 0 0-.048.33c-.038.292-.084.727-.112 1.277a22 22 0 0 0 .24 4.48c.565 3.635 2.204 8.292 6.51 12.41 4.728 4.522 5.72 10.987 3.633 16.251-2.099 5.293-7.293 9.34-14.795 9.067a.838.838 0 0 1 .06-1.675c6.788.247 11.338-3.371 13.177-8.01 1.85-4.665.974-10.397-3.233-14.422-4.63-4.428-6.4-9.452-7.008-13.363a23.7 23.7 0 0 1-.258-4.824c.031-.598.081-1.075.124-1.407a12 12 0 0 1 .074-.491l.006-.03.002-.009v-.004l.823.16-.822-.161a.838.838 0 0 1 1.644.321" clip-rule="evenodd"></path><path fill="#252525" fill-rule="evenodd" d="M41.844 24.151c-4.329-.159-7.97 3.23-8.13 7.57l-1.056-.039 1.057.039c-.16 4.344 3.224 7.987 7.553 8.146 4.328.158 7.97-3.23 8.129-7.57.158-4.345-3.225-7.987-7.553-8.146M31.6 31.643c.201-5.504 4.82-9.808 10.32-9.606s9.791 4.829 9.59 10.337c-.202 5.505-4.821 9.808-10.32 9.607s-9.792-4.83-9.59-10.338" clip-rule="evenodd"></path><path fill="#E56F35" fill-rule="evenodd" d="M59.659 20.84c1.14.38 2.356 1.249 3.757 2.73A.838.838 0 1 1 62.2 24.72c-1.315-1.39-2.306-2.036-3.071-2.292-.723-.241-1.311-.158-1.916.099-.49.207-.94.5-1.473.848-.198.128-.407.265-.635.407-.791.496-1.727 1.006-2.876 1.19a.838.838 0 0 1-.265-1.655c.812-.13 1.516-.495 2.252-.955q.243-.153.505-.326c.57-.37 1.198-.781 1.838-1.052.903-.383 1.918-.54 3.1-.145" clip-rule="evenodd"></path></svg>